<svg xmlns="http://www.w3.org/2000/svg" version="1.1" xmlns:xlink="http://www.w3.org/1999/xlink" xmlns:svgjs="http://svgjs.dev/svgjs" viewBox="0 0 800 800"><defs><linearGradient x1="50%" y1="0%" x2="50%" y2="100%" id="nnneon-grad"><stop stop-color="hsl(157, 100%, 54%)" stop-opacity="1" offset="0%"></stop><stop stop-color="hsl(331, 87%, 61%)" stop-opacity="1" offset="100%"></stop></linearGradient><filter id="nnneon-filter" x="-100%" y="-100%" width="400%" height="400%" filterUnits="objectBoundingBox" primitiveUnits="userSpaceOnUse" color-interpolation-filters="sRGB">
	<feGaussianBlur stdDeviation="40 40" x="0%" y="0%" width="100%" height="100%" in="SourceGraphic" edgeMode="none" result="blur"></feGaussianBlur></filter><filter id="nnneon-filter2" x="-100%" y="-100%" width="400%" height="400%" filterUnits="objectBoundingBox" primitiveUnits="userSpaceOnUse" color-interpolation-filters="sRGB">
	<feGaussianBlur stdDeviation="0 0" x="0%" y="0%" width="100%" height="100%" in="SourceGraphic" edgeMode="none" result="blur"></feGaussianBlur></filter></defs><g stroke-width="40" stroke="url(#nnneon-grad)" fill="none"><path d="M400.0000305175781 49.54888916015625L703.5000499110323 224.77445153320912V575.2255762793149L400.0000305175781 750.4511386523678L96.50001112412394 575.2255762793149V224.77445153320912L400.0000305175781 49.54888916015625Z " filter="url(#nnneon-filter)"></path><path d="M426.0000305175781 49.54888916015625L729.5000499110323 224.77445153320912V575.2255762793149L426.0000305175781 750.4511386523678L122.50001112412394 575.2255762793149V224.77445153320912L426.0000305175781 49.54888916015625Z " filter="url(#nnneon-filter2)" opacity="0.21"></path><path d="M374.0000305175781 49.54888916015625L677.5000499110323 224.77445153320912V575.2255762793149L374.0000305175781 750.4511386523678L70.50001112412394 575.2255762793149V224.77445153320912L374.0000305175781 49.54888916015625Z " filter="url(#nnneon-filter2)" opacity="0.21"></path><path d="M400.0000305175781 49.54888916015625L703.5000499110323 224.77445153320912V575.2255762793149L400.0000305175781 750.4511386523678L96.50001112412394 575.2255762793149V224.77445153320912L400.0000305175781 49.54888916015625Z "></path></g></svg>